HIERARCHY
ROOT Hips
{
	OFFSET	0.00	0.00	0.00
	CHANNELS 6 Xposition Yposition Zposition Zrotation Xrotation Yrotation
	JOINT LeftUpLeg
	{
		OFFSET	 0.126116	-0.014019	-0.065224
		CHANNELS 3 Zrotation Xrotation Yrotation
		JOINT LeftLeg
		{
			OFFSET	 0.000000	 0.000000	 0.569914
			CHANNELS 3 Zrotation Xrotation Yrotation
			JOINT LeftFoot
			{
				OFFSET	 0.000000	 0.000000	 0.544423
				CHANNELS 3 Zrotation Xrotation Yrotation
				JOINT LeftToeBase
				{
					OFFSET	 0.000000	 0.000000	 0.207117
					CHANNELS 3 Zrotation Xrotation Yrotation
					End Site
					{
						OFFSET	 0.000000	 0.000000	 0.207117
					}
				}
			}
		}
	}
	JOINT RightUpLeg
	{
		OFFSET	-0.124023	-0.008373	-0.065224
		CHANNELS 3 Zrotation Xrotation Yrotation
		JOINT RightLeg
		{
			OFFSET	 0.000000	 0.000000	 0.570047
			CHANNELS 3 Zrotation Xrotation Yrotation
			JOINT RightFoot
			{
				OFFSET	 0.000000	 0.000000	 0.544354
				CHANNELS 3 Zrotation Xrotation Yrotation
				JOINT RightToeBase
				{
					OFFSET	 0.000000	 0.000000	 0.207540
					CHANNELS 3 Zrotation Xrotation Yrotation
					End Site
					{
						OFFSET	 0.000000	 0.000000	 0.207540
					}
				}
			}
		}
	}
	JOINT Spine
	{
		OFFSET	 0.000184	-0.007763	 0.117403
		CHANNELS 3 Zrotation Xrotation Yrotation
		JOINT Spine1
		{
			OFFSET	 0.000000	 0.000000	 0.137269
			CHANNELS 3 Zrotation Xrotation Yrotation
			JOINT Spine2
			{
				OFFSET	 0.000000	 0.000000	 0.156879
				CHANNELS 3 Zrotation Xrotation Yrotation
				JOINT LeftShoulder
				{
					OFFSET	 0.080501	-0.002496	 0.160144
					CHANNELS 3 Zrotation Xrotation Yrotation
					JOINT LeftArm
					{
						OFFSET	 0.000000	 0.000000	 0.164363
						CHANNELS 3 Zrotation Xrotation Yrotation
						JOINT LeftForeArm
						{
							OFFSET	 0.000000	 0.000000	 0.364576
							CHANNELS 3 Zrotation Xrotation Yrotation
							JOINT LeftHand
							{
								OFFSET	 0.000000	 0.000000	 0.360812
								CHANNELS 3 Zrotation Xrotation Yrotation
								JOINT LeftHandIndex1
								{
									OFFSET	 0.000000	 0.000000	 0.086006
									CHANNELS 3 Zrotation Xrotation Yrotation
									JOINT LeftHandIndex2
									{
										OFFSET	 0.000000	 0.000000	 0.047237
										CHANNELS 3 Zrotation Xrotation Yrotation
										JOINT LeftHandIndex3
										{
											OFFSET	-0.004284	-0.000551	 0.038165
											CHANNELS 3 Zrotation Xrotation Yrotation
											End Site
											{
												OFFSET	-0.004284	-0.000551	 0.038165
											}
										}
									}
								}
							}
						}
					}
				}
				JOINT Neck
				{
					OFFSET	 0.000000	 0.000000	 0.176489
					CHANNELS 3 Zrotation Xrotation Yrotation
					JOINT Head
					{
						OFFSET	 0.000000	-0.001747	 0.077940
						CHANNELS 3 Zrotation Xrotation Yrotation
						End Site
						{
							OFFSET	 0.000000	-0.001747	 0.077940
						}
					}
				}
				JOINT RightShoulder
				{
					OFFSET	-0.080363	 0.000306	 0.159706
					CHANNELS 3 Zrotation Xrotation Yrotation
					JOINT RightArm
					{
						OFFSET	 0.000000	 0.000000	 0.164196
						CHANNELS 3 Zrotation Xrotation Yrotation
						JOINT RightForeArm
						{
							OFFSET	 0.000000	 0.000000	 0.365611
							CHANNELS 3 Zrotation Xrotation Yrotation
							JOINT RightHand
							{
								OFFSET	 0.000000	 0.000000	 0.360648
								CHANNELS 3 Zrotation Xrotation Yrotation
								JOINT RightHandIndex1
								{
									OFFSET	 0.000000	 0.000000	 0.069977
									CHANNELS 3 Zrotation Xrotation Yrotation
									JOINT RightHandIndex2
									{
										OFFSET	 0.000000	 0.000000	 0.052305
										CHANNELS 3 Zrotation Xrotation Yrotation
										JOINT RightHandIndex3
										{
											OFFSET	 0.009002	-0.000782	 0.042196
											CHANNELS 3 Zrotation Xrotation Yrotation
											End Site
											{
												OFFSET	 0.009002	-0.000782	 0.042196
											}
										}
									}
								}
							}
						}
					}
				}
			}
		}
	}
}
MOTION
Frames:    4
Frame Time: 0.03333334
-0.724216	-0.036866	 1.290789	 169.425300	-11.080620	-0.305966	-23.093870	 1.801813	-170.918600	-1.997331	-31.686740	-1.819544	-1.944204	 75.727470	-11.268570	-2.385833	 28.452760	 0.000004	-2.731556	 2.630461	-175.629000	 10.130260	-31.474670	 5.447423	-34.689120	 81.478170	 35.485680	 2.384659	 28.388700	-0.000001	 6.222712	 10.334400	-12.773500	-2.105955	 14.927240	 0.349412	 14.093190	-11.346470	 9.185730	-91.776190	 78.527400	-180.000000	 27.596560	 61.381400	-30.058830	-28.061030	 19.334790	-62.767640	-39.261490	-37.434130	-22.761260	-4.130354	 21.526190	 0.991307	-5.167926	 0.731697	 3.519349	-1.378229	 35.397820	-2.634230	 14.664920	 5.634038	-3.001657	 9.389116	-14.469630	-2.984222	 89.782070	 78.203900	-180.000000	-49.756500	 11.884910	 87.724770	 10.872920	 0.900033	 138.693600	 26.040410	 18.561000	 9.244407	 5.716295	 19.173350	-3.684826	 5.027458	 0.246833	-9.377971	-2.350882	 35.473990	 5.254307
-0.724973	-0.035502	 1.290625	 168.587700	-10.839200	 0.396960	-24.214310	 1.653376	-170.896700	-1.557623	-31.772940	-1.591910	-1.867785	 75.695280	-11.778420	-2.385833	 28.452760	 0.000004	-3.849733	 2.306238	-175.623500	 10.601330	-31.260150	 5.664901	-33.693250	 81.470990	 34.006450	 2.384659	 28.388700	-0.000001	 7.938639	 9.497333	-14.763850	-2.189123	 16.420400	 0.256624	 14.318980	-14.247550	 10.893880	-91.776260	 78.527420	-179.999900	 25.415080	 59.416040	-27.574540	-28.091410	 20.167800	-63.627430	-41.407090	-37.519130	-24.224770	-4.130354	 21.526190	 0.991307	-5.167926	 0.731697	 3.519349	-1.378229	 35.397820	-2.634230	 15.078970	 5.358214	-4.480015	 9.019210	-16.629640	-4.368770	 89.782080	 78.203890	-180.000000	-51.004120	 10.911480	 87.948510	 12.479990	-0.531597	 137.637500	 19.492720	 22.198890	 13.187260	 5.716295	 19.173350	-3.684826	 5.027458	 0.246833	-9.377971	-2.350882	 35.473990	 5.254307
-0.724700	-0.034741	 1.290282	 168.168000	-10.621440	 0.351814	-24.903370	 1.457720	-170.528100	-1.347881	-31.465600	-1.468410	-1.233756	 75.353680	-12.646690	-2.385833	 28.452760	 0.000004	-4.330292	 1.886899	-175.244200	 10.861520	-31.458900	 5.836464	-33.543000	 81.837260	 33.599720	 2.384659	 28.388700	-0.000001	 8.793216	 8.785988	-15.248160	-2.093738	 17.289480	 0.567557	 14.306420	-15.718170	 10.973180	-91.776210	 78.527350	-180.000000	 23.620990	 58.364680	-26.175430	-27.895800	 20.499450	-64.448100	-42.476600	-37.474880	-24.872610	-4.130354	 21.526190	 0.991307	-5.167926	 0.731697	 3.519349	-1.378229	 35.397820	-2.634230	 15.161710	 5.807591	-4.901636	 8.951270	-18.240280	-4.217171	 89.782060	 78.203890	-180.000000	-50.507780	 9.797572	 87.815060	 13.565490	-1.556558	 136.999000	 14.989850	 23.506540	 16.071760	 5.716295	 19.173350	-3.684826	 5.027458	 0.246833	-9.377971	-2.350882	 35.473990	 5.254307
-0.723998	-0.034219	 1.289432	 167.474200	-10.408190	 0.449676	-26.299560	 1.306160	-170.027400	-0.907785	-30.910120	-1.218677	-0.649376	 74.967690	-13.656780	-2.385833	 28.452760	 0.000004	-5.218813	 1.425973	-174.826000	 11.290710	-31.528650	 6.078871	-33.137710	 82.043330	 32.817790	 2.384659	 28.388700	-0.000001	 10.418340	 7.621871	-16.180420	-1.556448	 18.479150	 0.469945	 14.283010	-17.639380	 11.404100	-91.776180	 78.527420	-180.000000	 18.195390	 56.306770	-22.920680	-27.247970	 20.917910	-66.421260	-43.611510	-37.158440	-25.235370	-4.130354	 21.526190	 0.991307	-5.167926	 0.731697	 3.519349	-1.378229	 35.397820	-2.634230	 14.987190	 5.484400	-5.136327	 8.717159	-19.574150	-4.586268	 89.782150	 78.203850	 180.000000	-49.452220	 7.608494	 87.949450	 15.514920	-3.536856	 135.704900	 6.383949	 24.573410	 21.055050	 5.716295	 19.173350	-3.684826	 5.027458	 0.246833	-9.377971	-2.350882	 35.473990	 5.254307
